# xmcd CD database file
#
# Track frame offsets:
#	150
#	17110
#	32295
#
# Disc length: 663 seconds
#
# Revision: 2
# Processed by: cddbd v1.4PL0 Copyright (c) Steve Scherf et al.
# Submitted via: CDex 1.40Beta8
#
DISCID=15029503
DTITLE=Paul Weller - Into Tomorrow (single)
DYEAR=1900
DGENRE=
TTITLE0=Into Tomorrow
TTITLE1=Wild Wood
TTITLE2=Out Of The Sinking
EXTD=
EXTT0=
EXTT1=
EXTT2=
PLAYORDER=
